<?xml version="1.0" encoding="UTF-8"?>
<svg id="Layer_2" data-name="Layer 2" xmlns="http://www.w3.org/2000/svg" viewBox="0 0 142.8 30.54">
  <defs>
    <style>
      .cls-1 {
        fill: #2e3192;
      }

      .cls-2 {
        fill: #80d1e9;
      }
    </style>
  </defs>
  <g id="Layer_1-2" data-name="Layer 1">
    <g>
      <rect class="cls-1" x="54.13" y=".19" width=".39" height="30.34"/>
      <polygon class="cls-2" points="99.2 9.03 99.2 .84 109.08 .84 99.2 9.03"/>
      <rect class="cls-1" x="111.41" y=".86" width="9.88" height="28.6"/>
      <rect class="cls-1" x="67.89" y=".84" width="9.87" height="28.67"/>
      <path class="cls-1" d="M96.87,16.35v13.07s0,.02,0,0l-16.77-15.97s0,0,0,0V.88s0-.02,0,0l16.77,15.47s0,0,0,0"/>
      <rect class="cls-1" x="99.2" y="10.85" width="9.88" height="18.61"/>
      <rect class="cls-1" x="123.19" y="11.32" width="8.82" height="6.86"/>
      <rect class="cls-1" x="142.41" width=".39" height="30.34"/>
      <path class="cls-1" d="M26.3.69c0-.06.03-.09.09-.09h.82c.06,0,.09.03.09.09v4.55c0,.18.03.3.1.36.07.07.17.1.32.1h.31c.12,0,.21.03.26.1.06.07.09.18.09.35,0,.18-.03.3-.08.35-.06.05-.15.07-.27.07h-.69c-.37,0-.63-.09-.79-.27-.16-.18-.24-.46-.24-.84V.69ZM28.91,4.64c0-.34.05-.63.15-.87.09-.24.22-.43.38-.58.16-.15.35-.26.57-.33.22-.07.45-.1.71-.1s.5.04.72.11c.22.07.41.18.58.33.16.15.29.35.38.61.09.25.14.56.14.91v.15s0,.1,0,.15c0,.25.06.42.17.52.11.1.23.15.37.15h.25c.12,0,.21.03.26.1.06.06.09.17.09.33,0,.17-.03.29-.08.35-.06.06-.15.1-.27.1-.1,0-.2,0-.31,0-.11,0-.22-.02-.33-.06-.11-.03-.21-.08-.31-.14-.1-.06-.18-.15-.26-.26-.16.19-.36.32-.59.4s-.51.12-.8.12-.56-.04-.79-.12c-.23-.08-.43-.21-.59-.39-.06.09-.13.17-.21.23-.08.06-.17.1-.25.14-.09.03-.18.05-.27.07-.09.01-.18.02-.26.02h-.31c-.12,0-.21-.03-.26-.1-.06-.07-.09-.18-.09-.34,0-.17.03-.28.08-.34.06-.06.15-.09.27-.09h.34c.14,0,.27-.06.38-.17.11-.11.17-.32.18-.63,0-.05,0-.09,0-.13v-.13ZM31.55,4.71c0-.71-.28-1.06-.83-1.06-.28,0-.49.09-.62.27-.13.18-.2.45-.2.79,0,.38.07.64.2.81.13.16.34.25.62.25s.5-.08.63-.25c.13-.17.2-.44.2-.8h0ZM35.42,5.16c0,.19.05.33.15.41s.25.13.46.13c.15,0,.26-.01.35-.03.08-.02.15-.06.19-.13.04-.06.07-.15.07-.26,0-.11.01-.26.01-.45v-1.12c0-.06.03-.09.09-.09h.82c.06,0,.09.03.09.09v1.47c0,.18.06.32.17.4.11.09.26.13.44.13.13,0,.24-.01.33-.03.08-.02.15-.06.19-.12.04-.06.07-.15.08-.26.01-.11.02-.26.02-.44v-1.83c0-.06.03-.09.09-.09h.82c.06,0,.09.03.09.09v2.14c0,.18.07.31.2.4.13.09.31.14.53.14h.15c.12,0,.21.03.26.1.06.06.09.17.09.33,0,.17-.03.29-.09.35-.06.06-.15.1-.26.1-.23,0-.43-.03-.59-.08-.17-.06-.3-.18-.4-.36-.08.16-.2.28-.36.35-.16.07-.36.1-.63.1h-.38c-.21,0-.38-.04-.52-.12-.14-.08-.25-.19-.33-.34-.08.17-.2.29-.36.36-.16.07-.36.1-.63.1h-.39c-.42,0-.7-.16-.85-.47-.08.17-.2.29-.36.36-.16.07-.36.11-.63.11h-.95c-.06,0-.12,0-.18,0-.05,0-.1-.02-.13-.05-.04-.03-.06-.07-.08-.12-.02-.05-.03-.13-.03-.22,0-.18.03-.3.08-.37.06-.07.15-.11.27-.11h.7c.11,0,.19-.02.24-.05.06-.03.1-.08.12-.15.03-.07.04-.16.04-.27,0-.11,0-.24,0-.4v-1.12c0-.06.03-.09.09-.09h.82c.06,0,.09.03.09.09v1.45ZM40.78,6.57c-.12,0-.21-.02-.26-.06-.06-.04-.09-.12-.09-.25,0-.15.03-.28.08-.39.06-.11.15-.17.27-.17h.43c.15,0,.25-.03.32-.1s.1-.19.1-.36v-2.22c0-.06.03-.09.09-.09h.82c.06,0,.09.03.09.09v2.45c0,.38-.08.66-.24.84-.16.18-.42.27-.79.27h-.82ZM41.71,2.05c-.06,0-.09-.03-.09-.09v-.76c0-.06.03-.09.09-.09h.84c.06,0,.09.03.09.09v.76c0,.06-.03.09-.09.09h-.84Z"/>
      <path class="cls-1" d="M2.6,13.31v-.38c0-.06.03-.09.09-.09h.81c.06,0,.09.03.09.09v2.85c0,.18.03.3.1.36.07.07.17.1.32.1h.33c.23,0,.35.15.35.44,0,.18-.03.29-.08.35-.06.06-.15.08-.27.08h-.71c-.29,0-.51-.05-.67-.15-.16-.1-.27-.28-.32-.53-.12.11-.27.18-.44.24-.17.05-.35.08-.54.08-.23,0-.44-.03-.65-.1-.2-.06-.38-.16-.53-.3-.15-.13-.27-.31-.36-.51-.09-.21-.13-.46-.13-.75,0-.34.05-.62.15-.85.1-.23.23-.41.39-.55.16-.14.34-.24.55-.29.21-.06.42-.09.64-.09h.88ZM.92,12.24c-.06,0-.09-.03-.09-.09v-.76c0-.06.03-.09.09-.09h.74c.06,0,.09.03.09.09v.76c0,.06-.03.09-.09.09h-.74ZM1.78,15.89c.28,0,.49-.08.62-.24.13-.16.2-.4.2-.71v-.75h-.78c-.25,0-.45.06-.61.19-.15.13-.23.37-.23.71,0,.27.07.47.21.6.14.13.33.19.58.19ZM2.07,12.24c-.06,0-.09-.03-.09-.09v-.76c0-.06.03-.09.09-.09h.74c.06,0,.09.03.09.09v.76c0,.06-.03.09-.09.09h-.74ZM6.35,16.67c-.08.17-.21.29-.37.35-.17.06-.39.1-.67.1h-.82c-.12,0-.21-.03-.26-.08-.06-.06-.09-.17-.09-.33s.03-.29.08-.36c.06-.07.15-.1.27-.1h.57c.11,0,.19-.02.24-.05.06-.03.1-.08.12-.15.03-.07.04-.16.05-.26,0-.11,0-.24,0-.4v-1.83s.02-.06.05-.07c.03-.01.07-.02.1-.02h.76c.06,0,.09.03.09.09v2.14c0,.18.07.31.2.4.13.09.31.14.53.14h.15c.12,0,.21.03.26.1.06.06.09.17.09.33,0,.17-.03.29-.08.35-.06.06-.15.1-.27.1-.23,0-.43-.03-.6-.08-.17-.06-.3-.18-.4-.36ZM4.98,18.81c-.06,0-.09-.03-.09-.09v-.76c0-.06.03-.09.09-.09h.74c.06,0,.09.03.09.09v.76c0,.06-.03.09-.09.09h-.74ZM6.13,18.81c-.06,0-.09-.03-.09-.09v-.76c0-.06.03-.09.09-.09h.74c.06,0,.09.03.09.09v.76c0,.06-.03.09-.09.09h-.74ZM9.26,16.67c-.08.17-.21.29-.37.35-.17.06-.39.1-.67.1h-.82c-.12,0-.21-.03-.26-.08-.06-.06-.09-.17-.09-.33s.03-.29.08-.36c.06-.07.15-.1.27-.1h.57c.11,0,.19-.02.24-.05.06-.03.1-.08.12-.15.03-.07.04-.16.05-.26,0-.11,0-.24,0-.4v-1.83s.02-.06.05-.07c.03-.01.07-.02.1-.02h.76c.06,0,.09.03.09.09v2.14c0,.18.07.31.2.4.13.09.31.14.53.14h.15c.12,0,.21.03.26.1.06.06.09.17.09.33,0,.17-.03.29-.08.35-.06.06-.15.1-.27.1-.23,0-.43-.03-.6-.08-.17-.06-.3-.18-.4-.36ZM7.95,12.59c-.06,0-.09-.03-.09-.09v-.76c0-.06.03-.09.09-.09h.74c.06,0,.09.03.09.09v.76c0,.06-.03.09-.09.09h-.74ZM9.1,12.59c-.06,0-.09-.03-.09-.09v-.76c0-.06.03-.09.09-.09h.74c.06,0,.09.03.09.09v.76c0,.06-.03.09-.09.09h-.74ZM10.75,14.15s-.05-.09-.02-.12c.18-.21.4-.37.65-.51.25-.13.56-.2.92-.2.39,0,.72.06.98.18.26.12.47.28.63.48.16.2.27.44.34.7.07.27.1.55.1.85,0,.04,0,.08,0,.11,0,.04,0,.07,0,.11.02.16.09.28.22.37.13.09.3.13.51.13h.15c.12,0,.21.03.26.1.06.06.09.17.09.33,0,.17-.03.29-.08.35-.06.06-.15.1-.27.1-.25,0-.46-.03-.65-.1-.18-.06-.33-.21-.43-.42-.11.2-.27.34-.46.41-.2.07-.44.11-.72.11h-2.72c-.12,0-.21-.03-.26-.1-.06-.07-.09-.18-.09-.34,0-.17.03-.28.08-.34.06-.06.15-.09.27-.09h2.34c.15,0,.28-.01.37-.04.09-.02.17-.06.22-.12.05-.06.09-.14.11-.23.02-.1.03-.22.03-.36,0-.19-.02-.36-.05-.52-.04-.16-.09-.3-.18-.41-.08-.12-.19-.21-.32-.28-.13-.07-.3-.1-.5-.1s-.37.04-.53.11c-.16.08-.3.18-.42.31-.04.04-.08.04-.12,0l-.46-.47h0ZM17.14,16.67c-.08.17-.21.29-.37.35-.17.06-.39.1-.67.1h-.82c-.12,0-.21-.03-.26-.08-.06-.06-.09-.17-.09-.33s.03-.29.08-.36c.06-.07.15-.1.27-.1h.57c.11,0,.19-.02.24-.05.06-.03.1-.08.12-.15.03-.07.04-.16.05-.26,0-.11,0-.24,0-.4v-1.83s.02-.06.05-.07c.03-.01.07-.02.1-.02h.76c.06,0,.09.03.09.09v2.14c0,.18.07.31.2.4.13.09.31.14.53.14h.15c.12,0,.21.03.26.1.06.06.09.17.09.33,0,.17-.03.29-.08.35-.06.06-.15.1-.27.1-.23,0-.43-.03-.6-.08-.17-.06-.3-.18-.4-.36ZM15.83,12.59c-.06,0-.09-.03-.09-.09v-.76c0-.06.03-.09.09-.09h.74c.06,0,.09.03.09.09v.76c0,.06-.03.09-.09.09h-.74ZM16.97,12.59c-.06,0-.09-.03-.09-.09v-.76c0-.06.03-.09.09-.09h.74c.06,0,.09.03.09.09v.76c0,.06-.03.09-.09.09h-.74ZM18.14,17.12c-.12,0-.21-.03-.26-.08-.06-.06-.09-.17-.09-.34s.03-.28.08-.35c.06-.07.15-.1.27-.1h.43c.15,0,.25-.03.32-.1s.1-.19.1-.36v-4.55c0-.06.03-.09.09-.09h.82c.06,0,.09.03.09.09v4.78c0,.38-.08.66-.24.84-.16.18-.42.27-.79.27h-.82ZM22.12,17.03c0,.06-.03.09-.09.09h-.82c-.06,0-.09-.03-.09-.09v-5.8c0-.06.03-.09.09-.09h.82c.06,0,.09.03.09.09v5.8ZM27.72,13.31v-.38c0-.06.03-.09.09-.09h.81c.06,0,.09.03.09.09v2.85c0,.18.03.3.1.36.07.07.17.1.32.1h.33c.23,0,.35.15.35.44,0,.18-.03.29-.08.35-.06.06-.15.08-.27.08h-.71c-.29,0-.51-.05-.67-.15-.16-.1-.27-.28-.32-.53-.12.11-.27.18-.44.24-.17.05-.35.08-.54.08-.23,0-.44-.03-.65-.1-.2-.06-.38-.16-.53-.3-.15-.13-.27-.31-.36-.51-.09-.21-.13-.46-.13-.75,0-.34.05-.62.15-.85.1-.23.23-.41.39-.55.16-.14.34-.24.55-.29.21-.06.42-.09.64-.09h.88ZM26.04,12.24c-.06,0-.09-.03-.09-.09v-.76c0-.06.03-.09.09-.09h.74c.06,0,.09.03.09.09v.76c0,.06-.03.09-.09.09h-.74ZM26.89,15.89c.28,0,.49-.08.62-.24.13-.16.2-.4.2-.71v-.75h-.78c-.25,0-.45.06-.61.19-.15.13-.23.37-.23.71,0,.27.07.47.21.6.14.13.33.19.58.19ZM27.18,12.24c-.06,0-.09-.03-.09-.09v-.76c0-.06.03-.09.09-.09h.74c.06,0,.09.03.09.09v.76c0,.06-.03.09-.09.09h-.74ZM31.47,16.67c-.08.17-.21.29-.37.35-.17.06-.39.1-.67.1h-.82c-.12,0-.21-.03-.26-.08-.06-.06-.09-.17-.09-.33s.03-.29.08-.36c.06-.07.15-.1.27-.1h.57c.11,0,.19-.02.24-.05.06-.03.1-.08.12-.15.03-.07.04-.16.05-.26,0-.11,0-.24,0-.4v-1.83s.02-.06.05-.07c.03-.01.07-.02.1-.02h.76c.06,0,.09.03.09.09v2.14c0,.18.07.31.2.4.13.09.31.14.53.14h.15c.12,0,.21.03.26.1.06.06.09.17.09.33,0,.17-.03.29-.08.35-.06.06-.15.1-.27.1-.23,0-.43-.03-.6-.08-.17-.06-.3-.18-.4-.36ZM30.1,18.81c-.06,0-.09-.03-.09-.09v-.76c0-.06.03-.09.09-.09h.74c.06,0,.09.03.09.09v.76c0,.06-.03.09-.09.09h-.74ZM31.24,18.81c-.06,0-.09-.03-.09-.09v-.76c0-.06.03-.09.09-.09h.74c.06,0,.09.03.09.09v.76c0,.06-.03.09-.09.09h-.74ZM34.36,15.71c0,.18.07.31.2.4.13.09.31.14.53.14h.15c.12,0,.21.03.26.1.06.06.09.17.09.33,0,.17-.03.29-.08.35-.06.06-.15.1-.27.1-.23,0-.43-.03-.6-.08-.17-.06-.3-.18-.4-.36-.08.17-.2.29-.36.35-.16.06-.38.1-.66.1h-.69c-.12,0-.21-.02-.26-.06-.06-.04-.09-.12-.09-.25,0-.15.03-.28.08-.39.06-.11.15-.17.28-.17h.42c.1,0,.18-.01.24-.04.06-.03.1-.08.13-.14.03-.06.04-.15.05-.25,0-.11,0-.23,0-.39v-1.86c0-.06.03-.09.09-.09h.82c.06,0,.09.03.09.09v2.14ZM33.45,12.59c-.06,0-.09-.03-.09-.09v-.76c0-.06.03-.09.09-.09h.84c.06,0,.09.03.09.09v.76c0,.06-.03.09-.09.09h-.84ZM37.09,15.71c0,.18.07.31.2.4.13.09.31.14.53.14h.15c.12,0,.21.03.26.1.06.06.09.17.09.33,0,.17-.03.29-.08.35-.06.06-.15.1-.27.1-.23,0-.43-.03-.6-.08-.17-.06-.3-.18-.4-.36-.08.17-.2.29-.36.35-.16.06-.38.1-.66.1h-.69c-.12,0-.21-.02-.26-.06-.06-.04-.09-.12-.09-.25,0-.15.03-.28.08-.39.06-.11.15-.17.28-.17h.42c.1,0,.18-.01.24-.04.06-.03.1-.08.13-.14.03-.06.04-.15.05-.25,0-.11,0-.23,0-.39v-1.86c0-.06.03-.09.09-.09h.82c.06,0,.09.03.09.09v2.14ZM36.17,18.79c-.06,0-.09-.03-.09-.09v-.76c0-.06.03-.09.09-.09h.84c.06,0,.09.03.09.09v.76c0,.06-.03.09-.09.09h-.84ZM38.35,16.25c.15,0,.25-.03.32-.1s.1-.19.1-.36v-4.55c0-.06.03-.09.09-.09h.82c.06,0,.09.03.09.09v4.47c0,.18.07.31.2.4.13.09.31.14.53.14h.15c.12,0,.21.03.26.1.06.06.09.17.09.33,0,.17-.03.29-.08.35-.06.06-.15.1-.27.1-.23,0-.43-.03-.6-.08-.17-.06-.3-.18-.4-.36-.08.16-.2.28-.36.35-.16.07-.36.1-.63.1h-.74c-.12,0-.21-.03-.26-.08-.06-.06-.09-.18-.09-.36,0-.16.03-.27.08-.33.06-.06.15-.09.27-.09h.43ZM40.65,17.12c-.12,0-.21-.03-.26-.08-.06-.06-.09-.17-.09-.34s.03-.28.08-.35c.06-.07.15-.1.27-.1h.43c.15,0,.25-.03.32-.1s.1-.19.1-.36v-4.55c0-.06.03-.09.09-.09h.82c.06,0,.09.03.09.09v4.78c0,.38-.08.66-.24.84-.16.18-.42.27-.79.27h-.82Z"/>
      <path class="cls-1" d="M18.82,23.86v-.38c0-.06.03-.09.09-.09h.81c.06,0,.09.03.09.09v2.85c0,.18.03.3.1.36.07.07.17.1.32.1h.33c.23,0,.35.15.35.44,0,.18-.03.29-.08.35-.06.06-.15.08-.27.08h-.71c-.29,0-.51-.05-.67-.15-.16-.1-.27-.28-.32-.53-.12.11-.27.18-.44.24-.17.05-.35.08-.54.08-.23,0-.44-.03-.65-.1-.2-.06-.38-.16-.53-.3-.15-.13-.27-.31-.36-.51-.09-.21-.13-.46-.13-.75,0-.34.05-.62.15-.85.1-.23.23-.41.39-.55.16-.14.34-.24.55-.29.21-.06.42-.09.64-.09h.88ZM17.14,22.79c-.06,0-.09-.03-.09-.09v-.76c0-.06.03-.09.09-.09h.74c.06,0,.09.03.09.09v.76c0,.06-.03.09-.09.09h-.74ZM17.99,26.44c.28,0,.49-.08.62-.24.13-.16.2-.4.2-.71v-.75h-.78c-.25,0-.45.06-.61.19-.15.13-.23.37-.23.71,0,.27.07.47.21.6.14.13.33.19.58.19ZM18.28,22.79c-.06,0-.09-.03-.09-.09v-.76c0-.06.03-.09.09-.09h.74c.06,0,.09.03.09.09v.76c0,.06-.03.09-.09.09h-.74ZM22.57,27.22c-.08.17-.21.29-.37.35-.17.06-.39.1-.67.1h-.82c-.12,0-.21-.03-.26-.08-.06-.06-.09-.17-.09-.33s.03-.29.08-.36c.06-.07.15-.1.27-.1h.57c.11,0,.19-.02.24-.05.06-.03.1-.08.12-.15.03-.07.04-.16.05-.26,0-.11,0-.24,0-.4v-1.83s.02-.06.05-.07c.03-.01.07-.02.1-.02h.76c.06,0,.09.03.09.09v2.14c0,.18.07.31.2.4.13.09.31.14.53.14h.15c.12,0,.21.03.26.1.06.06.09.17.09.33,0,.17-.03.29-.08.35-.06.06-.15.1-.27.1-.23,0-.43-.03-.6-.08-.17-.06-.3-.18-.4-.36ZM21.2,29.35c-.06,0-.09-.03-.09-.09v-.76c0-.06.03-.09.09-.09h.74c.06,0,.09.03.09.09v.76c0,.06-.03.09-.09.09h-.74ZM22.34,29.35c-.06,0-.09-.03-.09-.09v-.76c0-.06.03-.09.09-.09h.74c.06,0,.09.03.09.09v.76c0,.06-.03.09-.09.09h-.74ZM25.46,26.25c0,.18.07.31.2.4.13.09.31.14.53.14h.15c.12,0,.21.03.26.1.06.06.09.17.09.33,0,.17-.03.29-.08.35-.06.06-.15.1-.27.1-.23,0-.43-.03-.6-.08-.17-.06-.3-.18-.4-.36-.08.17-.2.29-.36.35-.16.06-.38.1-.66.1h-.69c-.12,0-.21-.02-.26-.06-.06-.04-.09-.12-.09-.25,0-.15.03-.28.08-.39.06-.11.15-.17.28-.17h.42c.1,0,.18-.01.24-.04.06-.03.1-.08.13-.14.03-.06.04-.15.05-.25,0-.11,0-.23,0-.39v-1.86c0-.06.03-.09.09-.09h.82c.06,0,.09.03.09.09v2.14ZM24.55,23.14c-.06,0-.09-.03-.09-.09v-.76c0-.06.03-.09.09-.09h.84c.06,0,.09.03.09.09v.76c0,.06-.03.09-.09.09h-.84ZM28.66,23.86c.6,0,1.05.14,1.37.43.32.28.47.66.47,1.14,0,.29-.07.55-.2.79s-.31.43-.53.58h1.25c.12,0,.21.03.26.08.06.06.09.17.09.33s-.03.29-.08.36c-.06.07-.15.1-.27.1h-1.22c-.21,0-.41,0-.6-.03-.19-.02-.37-.08-.54-.18-.19.11-.4.17-.62.18s-.41.03-.58.03h-1.17c-.12,0-.21-.04-.26-.11-.06-.07-.09-.18-.09-.34,0-.17.03-.28.08-.34.06-.06.15-.08.27-.08h1.24c-.22-.15-.39-.35-.52-.58s-.2-.5-.2-.79c0-.47.16-.85.47-1.14.32-.28.77-.43,1.37-.43ZM27.75,23.14c-.06,0-.09-.03-.09-.09v-.76c0-.06.03-.09.09-.09h.74c.06,0,.09.03.09.09v.76c0,.06-.03.09-.09.09h-.74ZM28.66,24.64c-.23,0-.43.07-.59.22-.17.14-.25.36-.25.64,0,.3.08.54.25.73.16.18.36.33.6.43.23-.1.42-.24.59-.43.16-.18.25-.43.25-.73,0-.28-.08-.49-.25-.64-.16-.14-.36-.22-.59-.22ZM28.9,23.14c-.06,0-.09-.03-.09-.09v-.76c0-.06.03-.09.09-.09h.74c.06,0,.09.03.09.09v.76c0,.06-.03.09-.09.09h-.74ZM32.93,27.22c-.08.17-.21.29-.37.35-.17.06-.39.1-.67.1h-.82c-.12,0-.21-.03-.26-.08-.06-.06-.09-.17-.09-.33s.03-.29.08-.36c.06-.07.15-.1.27-.1h.57c.11,0,.19-.02.24-.05.06-.03.1-.08.12-.15.03-.07.04-.16.05-.26,0-.11,0-.24,0-.4v-1.83s.02-.06.05-.07c.03-.01.07-.02.1-.02h.76c.06,0,.09.03.09.09v2.14c0,.18.07.31.2.4.13.09.31.14.53.14h.15c.12,0,.21.03.26.1.06.06.09.17.09.33,0,.17-.03.29-.08.35-.06.06-.15.1-.27.1-.23,0-.43-.03-.6-.08-.17-.06-.3-.18-.4-.36ZM31.62,23.14c-.06,0-.09-.03-.09-.09v-.76c0-.06.03-.09.09-.09h.74c.06,0,.09.03.09.09v.76c0,.06-.03.09-.09.09h-.74ZM32.76,23.14c-.06,0-.09-.03-.09-.09v-.76c0-.06.03-.09.09-.09h.74c.06,0,.09.03.09.09v.76c0,.06-.03.09-.09.09h-.74ZM33.93,27.67c-.12,0-.21-.03-.26-.08-.06-.06-.09-.17-.09-.34s.03-.28.08-.35c.06-.07.15-.1.27-.1h.43c.15,0,.25-.03.32-.1s.1-.19.1-.36v-4.55c0-.06.03-.09.09-.09h.82c.06,0,.09.03.09.09v4.78c0,.38-.08.66-.24.84-.16.18-.42.27-.79.27h-.82ZM37.91,27.58c0,.06-.03.09-.09.09h-.82c-.06,0-.09-.03-.09-.09v-5.8c0-.06.03-.09.09-.09h.82c.06,0,.09.03.09.09v5.8ZM40.66,27.67c-.28,0-.52-.03-.73-.09-.21-.06-.39-.16-.54-.31-.15-.14-.26-.33-.34-.56-.08-.23-.12-.51-.12-.84,0-.36.05-.66.15-.92.1-.25.23-.46.4-.62.17-.16.36-.28.58-.35.22-.07.45-.11.69-.11.26,0,.51.04.73.11s.41.18.57.33c.16.15.28.35.37.6.09.25.13.55.13.91v2.06c0,.55-.14.95-.41,1.2-.28.25-.68.38-1.2.38h-1.19c-.06,0-.09-.03-.09-.09v-.7c0-.06.03-.09.09-.09h1.03c.12,0,.23-.01.33-.03.1-.02.18-.06.25-.13.07-.06.12-.16.16-.27.04-.12.06-.27.06-.47h-.89ZM40.73,24.74c-.27,0-.48.1-.62.3-.15.2-.22.47-.22.8,0,.37.07.62.22.76.15.13.36.2.65.2h.78v-1c0-.35-.06-.61-.19-.79-.13-.18-.33-.27-.62-.27Z"/>
    </g>
  </g>
</svg>