<svg xmlns="http://www.w3.org/2000/svg" viewBox="0 0 512 512">
  <defs>
    <linearGradient id="bg" x1="0%" y1="0%" x2="100%" y2="100%">
      <stop offset="0%" style="stop-color:#1a1c5e"/>
      <stop offset="100%" style="stop-color:#2e3192"/>
    </linearGradient>
  </defs>
  <rect width="512" height="512" rx="96" fill="url(#bg)"/>
  <g transform="translate(96, 176) scale(3.96)">
    <rect fill="#ffffff" x="46.4" y=".04" width="10.53" height="30.52"/>
    <rect fill="#ffffff" y=".02" width="10.52" height="30.56"/>
    <path fill="#ffffff" d="M30.89,16.55v13.93s0,.02,0,0L13.01,13.47s0,0,0,0V.06s0-.02,0,0l17.88,16.49s0,0,0,0"/>
    <rect fill="#ffffff" x="33.38" y="10.69" width="10.53" height="19.87"/>
    <polygon fill="#80d1e9" points="33.38 8.75 33.38 .02 43.91 .02 33.38 8.75"/>
    <rect fill="#ffffff" x="58.95" y="11.2" width="9.4" height="7.32"/>
    <rect fill="#ffffff" x="80.45" width=".35" height="30.65"/>
  </g>
</svg>